<?xml version="1.0" encoding="UTF-8" standalone="no"?>
<!-- Created with Inkscape (http://www.inkscape.org/) -->

<svg
   xmlns:dc="http://purl.org/dc/elements/1.1/"
   xmlns:cc="http://creativecommons.org/ns#"
   xmlns:rdf="http://www.w3.org/1999/02/22-rdf-syntax-ns#"
   xmlns:svg="http://www.w3.org/2000/svg"
   xmlns="http://www.w3.org/2000/svg"
   xmlns:sodipodi="http://sodipodi.sourceforge.net/DTD/sodipodi-0.dtd"
   xmlns:inkscape="http://www.inkscape.org/namespaces/inkscape"
   id="svg3039"
   version="1.1"
   inkscape:version="0.48.4 r9939"
   width="18"
   height="16"
   sodipodi:docname="lieroworm.svg">
  <metadata
     id="metadata3045">
    <rdf:RDF>
      <cc:Work
         rdf:about="">
        <dc:format>image/svg+xml</dc:format>
        <dc:type
           rdf:resource="http://purl.org/dc/dcmitype/StillImage" />
        <dc:title />
      </cc:Work>
    </rdf:RDF>
  </metadata>
  <defs
     id="defs3043" />
  <sodipodi:namedview
     pagecolor="#ffffff"
     bordercolor="#666666"
     borderopacity="1"
     objecttolerance="10"
     gridtolerance="10"
     guidetolerance="10"
     inkscape:pageopacity="0"
     inkscape:pageshadow="2"
     inkscape:window-width="1279"
     inkscape:window-height="1374"
     id="namedview3041"
     showgrid="false"
     inkscape:zoom="52.33119"
     inkscape:cx="9.4333333"
     inkscape:cy="7.4333333"
     inkscape:window-x="1280"
     inkscape:window-y="27"
     inkscape:window-maximized="0"
     inkscape:current-layer="g3070" />
  <g
     id="g3070"
     transform="translate(0.13333367,0.19999967)">
    <path
       style="fill:#d7d7d7"
       d="m -0.06666669,14.361904 c 0,-2.021039 2.40753219,-4.4285707 4.42857139,-4.4285707 1.1352381,0 1.5714286,-0.991342 1.5714286,-3.5714286 0,-3.5392189 1.7978193,-6.42857139 4,-6.42857139 1.6539017,0 3.9999997,2.59746609 3.9999997,4.42857139 0,0.9047619 0.848485,1.5714286 2,1.5714286 1.1,0 2,0.2571429 2,0.5714286 0,1.1732953 -2.913065,3.4285714 -4.428571,3.4285714 -0.864286,0 -1.571429,0.7071427 -1.571429,1.5714287 0,3.399371 -5.1281564,5.939664 -6.4166664,3.178571 -0.4666666,-1 -0.7,-1 -1.1666666,0 -0.8434986,1.807497 -4.41666669,1.547455 -4.41666669,-0.321429 z"
       id="path3084"
       inkscape:connector-curvature="0" />
    <path
       style="fill:#b3b3b3"
       d="m -0.06666669,14.361904 c 0,-2.021039 2.40753219,-4.4285707 4.42857139,-4.4285707 1.1352381,0 1.5714286,-0.991342 1.5714286,-3.5714286 0,-5.43468313 3.4850653,-8.0863633 6.5714287,-5 2.468749,2.4687498 1.745954,4.5714286 -1.571429,4.5714286 -1.6499997,0 -2.9999997,0.45 -2.9999997,1 0,0.55 1.35,1 2.9999997,1 1.65,0 3,-0.45 3,-1 0,-0.55 0.9,-1 2,-1 1.1,0 2,0.2571429 2,0.5714286 0,1.1732953 -2.913065,3.4285714 -4.428571,3.4285714 -0.864286,0 -1.571429,0.7071427 -1.571429,1.5714287 0,3.399371 -5.1281564,5.939664 -6.4166664,3.178571 -0.4666666,-1 -0.7,-1 -1.1666666,0 -0.8434986,1.807497 -4.41666669,1.547455 -4.41666669,-0.321429 z"
       id="path3082"
       inkscape:connector-curvature="0" />
    <path
       style="fill:#8f8f8f"
       d="m -0.06666669,14.361904 c 0,-2.021039 2.40753219,-4.4285707 4.42857139,-4.4285707 1.1352381,0 1.5714286,-0.991342 1.5714286,-3.5714286 0,-5.43468313 3.4850653,-8.0863633 6.5714287,-5 2.468749,2.4687498 1.745954,4.5714286 -1.571429,4.5714286 -1.6499997,0 -2.9999997,0.45 -2.9999997,1 0,1.4683757 7.7496247,1.2343827 8.2797617,-0.25 0.245536,-0.6875 0.786607,-0.9339286 1.202381,-0.547619 1.011487,0.9398065 -1.931433,3.797619 -3.910714,3.797619 -0.864286,0 -1.571429,0.7071427 -1.571429,1.5714287 0,3.399371 -5.1281564,5.939664 -6.4166664,3.178571 -0.4666666,-1 -0.7,-1 -1.1666666,0 -0.8434986,1.807497 -4.41666669,1.547455 -4.41666669,-0.321429 z"
       id="path3080"
       inkscape:connector-curvature="0" />
    <path
       style="fill:#5b6f8f"
       d="m -0.06666669,14.361904 c 0,-2.021039 2.40753219,-4.4285707 4.42857139,-4.4285707 1.1352381,0 1.5714286,-0.991342 1.5714286,-3.5714286 0,-5.43468313 3.4850653,-8.0863633 6.5714287,-5 2.468749,2.4687498 1.745954,4.5714286 -1.571429,4.5714286 -1.6499997,0 -2.9999997,0.45 -2.9999997,1 0,0.55 1.8,1 3.9999997,1 2.2,0 4,0.45 4,1 0,0.55 -0.9,1 -2,1 -1.151515,0 -2,0.6666667 -2,1.5714287 0,3.399371 -5.1281564,5.939664 -6.4166664,3.178571 -0.4666666,-1 -0.7,-1 -1.1666666,0 -0.8434986,1.807497 -4.41666669,1.547455 -4.41666669,-0.321429 z"
       id="svg_light_color"
       inkscape:connector-curvature="0"
       inkscape:label="#path3078" />
    <path
       style="fill:#27476f"
       d="m -0.06666669,14.361904 c 0,-2.021039 2.40753219,-4.4285707 4.42857139,-4.4285707 0.8642857,0 1.5714286,-0.45 1.5714286,-1 0,-0.55 0.45,-1 1,-1 0.55,0 1,0.9 1,2 0,1.3333327 -0.6666667,1.9999997 -2,1.9999997 -1.3333333,0 -2,0.666667 -2,2 0,1.333333 -0.6666667,2 -2,2 -1.15151514,0 -1.99999999,-0.666667 -1.99999999,-1.571429 z M 5.9333333,15.4 c 0,-0.293334 1.56,-2.093334 3.4666667,-4 3.339511,-3.3395109 6.533333,-4.5453418 6.533333,-2.4666667 0,0.55 -0.9,1 -2,1 -1.151515,0 -2,0.6666667 -2,1.5714287 0,2.021039 -2.4075319,4.428571 -4.4285711,4.428571 -0.8642857,0 -1.5714286,-0.24 -1.5714286,-0.533333 z M 7.1284506,4.3787502 C 6.0502677,3.1571058 6.0812912,2.6425182 7.307022,1.4167874 8.1229218,0.60088768 9.3047619,-0.06666669 9.9333333,-0.06666669 c 1.6539017,0 3.9999997,2.59746609 3.9999997,4.42857139 0,2.0423688 -5.006285,2.0547618 -6.8048824,0.016845 z M 11.933333,2.9333333 c 0,-0.55 -0.9,-1 -1.9999997,-1 -1.1,0 -2,0.45 -2,1 0,0.55 0.9,1 2,1 1.0999997,0 1.9999997,-0.45 1.9999997,-1 z"
       id="svg_medium_color"
       inkscape:connector-curvature="0"
       inkscape:label="#path3076" />
    <path
       style="fill:#1b3753"
       d="m -0.06666669,14.361904 c 0,-1.979281 2.85781249,-4.9222003 3.79761899,-3.910714 0.3863096,0.415774 0.139881,0.956845 -0.547619,1.202381 -0.6875,0.245536 -1.25,1.308929 -1.25,2.363095 0,1.054167 -0.45,1.916667 -0.99999999,1.916667 -0.55,0 -1,-0.707143 -1,-1.571429 z m 7.99999999,1 c 0,-1.062128 3.0907237,-3.67118 3.6666667,-3.095238 0.314285,0.314286 -0.125,1.267857 -0.976191,2.119048 -1.5878779,1.587878 -2.6904757,1.987936 -2.6904757,0.97619 z m -2,-4.428571 c 0,-0.55 0.45,-0.9999997 1,-0.9999997 0.55,0 1,0.4499997 1,0.9999997 0,0.55 -0.45,1 -1,1 -0.55,0 -1,-0.45 -1,-1 z M 13.933333,8.9333333 c 0,-0.55 0.45,-1 1,-1 0.55,0 1,0.45 1,1 0,0.55 -0.45,1 -1,1 -0.55,0 -1,-0.45 -1,-1 z m -2,-4 c 0,-0.55 0.45,-1 1,-1 0.55,0 1,0.45 1,1 0,0.55 -0.45,1 -1,1 -0.55,0 -1,-0.45 -1,-1 z"
       id="svg_dark_color"
       inkscape:connector-curvature="0"
       inkscape:label="#path3074" />
  </g>
</svg>
